<svg xmlns="http://www.w3.org/2000/svg" width="106" height="53" fill="none"><path fill="#AFB1B8" d="M36.4063 49.1885c.0159.0003.0316.0035.0461.0092.0145.0057.0275.0138.0384.0239l.2181.2085c-.1693.1688-.3785.3037-.6134.3957-.2751.1003-.5716.1488-.8698.1421-.2802.0051-.5586-.0401-.8179-.1326-.2339-.085-.444-.2127-.6162-.3744-.1757-.1677-.3111-.3642-.3981-.5781-.0953-.2383-.1423-.4892-.139-.7415-.0039-.254.047-.5063.1499-.744.0953-.2152.2389-.4117.4226-.5781.1862-.1631.4089-.2913.6544-.3767.2685-.0904.5545-.1355.8425-.1327.2675-.0056.5336.0355.7825.1209.2159.0814.4142.1944.5862.334l-.1827.2227c-.0126.0157-.0283.0294-.0464.0403-.0215.0129-.0476.0187-.0736.0166-.0283-.0017-.0556-.0099-.079-.0237l-.0982-.0592-.1363-.0758c-.0589-.0282-.1199-.0527-.1827-.0735-.0809-.0251-.1638-.0449-.2481-.0592-.107-.0171-.2157-.0251-.3245-.0237-.2073-.0023-.4131.0316-.6052.0995-.1792.0629-.3409.1582-.4744.2796-.136.129-.2408.2805-.3081.4454-.0768.1886-.1147.3875-.1118.5876-.0033.2031.0345.4052.1118.597.0665.1635.1693.314.3026.4431.1249.1203.2797.2142.4526.2748.178.0641.369.0963.5617.0948.1112.0014.2225-.0049.3326-.019.1798-.0191.3522-.0733.5044-.1587.0763-.0438.1483-.0929.2154-.1469.028-.0233.0649-.0368.1036-.0379ZM42.7044 48.1408c.0034.2514-.0465.5012-.1472.7368-.0888.2138-.2288.4087-.4107.5721-.1819.1633-.4015.2913-.6444.3755-.5338.177-1.1239.177-1.6577 0-.2414-.0855-.4596-.2138-.6407-.3766-.1818-.1664-.3228-.363-.4144-.5781-.1964-.4772-.1964-.9987 0-1.4759.093-.2152.2338-.4124.4144-.5804.1827-.1578.4008-.2812.6407-.3625.5331-.1801 1.1246-.1801 1.6577 0 .2422.0855.4613.2138.6434.3767.1795.1647.3195.3588.4117.5709.101.2373.1509.4886.1472.7415Zm-.5725 0c.0043-.201-.0308-.4013-.1036-.5922-.0611-.1636-.1604-.3144-.2917-.443-.1279-.1217-.2853-.2172-.4608-.2796-.3879-.1295-.8172-.1295-1.2051 0-.1755.0624-.3329.1579-.4608.2796-.1331.1279-.2335.2789-.2944.443-.1387.3856-.1387.7989 0 1.1845.0615.1639.1618.3148.2944.443.128.121.2854.2157.4608.2772.3886.1262.8165.1262 1.2051 0 .1754-.0615.3328-.1562.4608-.2772.1307-.129.2299-.2797.2917-.443.0732-.1908.1082-.3911.1036-.5923ZM47.0013 48.7617l.0573.1327c.0218-.0474.0409-.09.0627-.1327.0208-.0445.0444-.088.0709-.1302l1.3932-2.2006c.0273-.0379.0518-.0616.0791-.0687.037-.0098.0758-.0138.1145-.0119h.4117v3.5792h-.4881v-2.743c-.0026-.041-.0026-.0821 0-.1232l-1.4014 2.2314c-.0178.0334-.0462.0617-.082.0814-.0358.0198-.0774.0302-.1197.0299h-.0791c-.0425.0006-.0842-.0097-.12-.0295-.0358-.0197-.0642-.0482-.0818-.0818l-1.4423-2.2456v2.8733h-.4716v-3.5721h.4117c.0386-.0019.0774.0021.1145.0119.0338.0145.0607.0388.0763.0687l1.4232 2.2029c.028.0407.0517.0836.0709.1279ZM52.2443 48.5839v1.3407h-.5453v-3.5744h1.216c.2296-.0038.4585.0225.6789.0782.1765.0434.3402.1194.4799.2226.1211.0968.2145.2169.2726.3506.0644.1458.0959.301.0927.4572.0024.1567-.0319.3123-.1008.4571-.0656.1372-.1663.2595-.2945.3577-.1399.1076-.3043.1883-.4826.2369-.2123.0589-.4343.0869-.6571.0829l-.6598-.0095Zm0-.3837h.6598c.1434.0016.286-.0168.4226-.0545.1127-.033.2166-.0853.3054-.154.0819-.0655.1454-.1466.1854-.2368.0446-.0955.0669-.1978.0654-.3009.0064-.0993-.0123-.1987-.0547-.2912-.0423-.0924-.1074-.1757-.1906-.2441-.2083-.1413-.47-.2097-.7335-.1919h-.6598v1.4734ZM59.5731 49.9294h-.4308c-.0432.0015-.0857-.0103-.12-.0331-.0309-.0223-.0552-.0508-.0709-.083l-.3708-.8646h-1.8621l-.3845.8646c-.0141.0317-.0376.0594-.0681.0806-.0347.0242-.0782.0369-.1227.0355h-.4308l1.6359-3.5795h.5671l1.6577 3.5795Zm-2.6992-1.329h1.5377l-.6489-1.4569c-.0496-.1096-.0906-.222-.1227-.3364l-.0627.1871c-.0191.0569-.0409.109-.06.1516l-.6434 1.4546ZM61.9288 46.3665c.0326.0155.0606.0374.0818.064l2.3856 2.6982V46.3499h.4881v3.5795h-.2727c-.0387.0011-.0771-.0063-.1118-.0213-.0336-.017-.0633-.0396-.0872-.0663l-2.3829-2.6959c.0026.041.0026.0822 0 .1232v2.6603h-.4881v-3.5795h.289c.0338-.0008.0673.0049.0982.0166ZM68.9031 48.5058v1.4214h-.5453v-1.4214L66.85 46.3501h.4881c.042-.0022.0836.0087.1172.0308.0297.023.0546.0502.0736.0805l.9434 1.3906c.0382.0592.0709.1137.0982.1658.0272.0522.049.1019.0681.1517l.0709-.154c.0265-.0563.0574-.111.0927-.1635l.9297-1.4c.0196-.028.0434-.0535.0709-.0759.0324-.0245.0744-.0372.1173-.0355h.4935l-1.5105 2.1652ZM46.7314 40.3431c.2372.0261.4772.0474.7198.0663 3.6789-1.4298 6.791-3.7701 8.9475-6.7282 2.1565-2.9582 3.2616-6.403 3.1772-9.9038l-4.0543-3.5226c.8244 3.7273.4388 7.5804-1.1136 11.1281-1.5525 3.5477-4.2104 6.6502-7.6766 8.9602Z"/><path fill="#AFB1B8" d="m45.2837 40.1793.1091.0189c3.7038-2.3018 6.5277-5.5162 8.1065-9.2274 1.5787-3.7111 1.8396-7.7485.749-11.5899l-5.7746-5.0172c2.3357 4.124 3.2758 8.7394 2.7111 13.3094-.5647 4.5701-2.6111 8.9069-5.9011 12.5062ZM64.8679 27.9136c-.9811 3.8466-3.3638 7.3157-6.7944 9.8923-1.0019.7567-2.0826 1.4307-3.2281 2.0135 2.7935-.7133 5.3611-1.9746 7.5048-3.6864 2.1438-1.7118 3.8064-3.8286 4.8598-6.1869l-2.3421-2.0325Z"/><path fill="#AFB1B8" d="M63.9491 27.3472 60.6146 24.45c-.0637 3.3031-1.1445 6.5311-3.13 9.3485-1.9855 2.8173-4.8032 5.1213-8.1603 6.6723h.0163c.7482-.0002 1.4956-.039 2.2385-.1161 3.1374-1.1126 5.9089-2.8827 8.0674-5.1524 2.1584-2.2697 3.6366-4.9683 4.3026-7.8551ZM45.7663 12.2479l-3.978-3.46091c-3.5561 1.19395-6.6145 3.29291-8.7749 6.02211-2.1605 2.7292-3.3222 5.9615-3.3333 9.2738.0133 3.6601 1.4312 7.2118 4.0292 10.0929 2.598 2.8812 6.2278 4.9272 10.3148 5.8143 3.6484-3.8621 5.7845-8.6343 6.0978-13.6233.3133-4.989-1.2125-9.9348-4.3556-14.1189ZM73.1401 26.8144c-.0144-4.3425-2.0062-8.5036-5.5404-11.5742-3.5341-3.0706-8.3233-4.8012-13.3213-4.8137-2.3096-.0021-4.5995.3682-6.7535 1.0921l24.3556 21.1611c.8339-1.8706 1.261-3.8594 1.2596-5.8653Z"/></svg>