<svg xmlns="http://www.w3.org/2000/svg" width="106" height="53" fill="none"><g fill="#AFB1B8" clip-path="url(#a)"><path fill-rule="evenodd" d="M50.1136 6.0215h-.1366c-.2099-.01272-.4199-.0178-.6299-.02289h-.4553c-.3972 0-.802.01017-1.2042.03051-.0303-.0022-.0607-.0022-.091 0-3.6444.20649-7.2149 1.11737-10.5161 2.68278l-.4326.20852V31.0616l1.0119-.3433c.8879-.3052 1.834-.5798 2.813-.8341 2.6465-.6794 5.3639-1.0405 8.0952-1.0757v2.9091c-.3618.0026-.7134.0127-1.065.0305h-.0835c-2.102.1153-4.1878.4356-6.2282.9562-2.5841.6469-5.077 1.6183-7.4197 2.8913V7.19886c2.4331-1.41913 5.0537-2.48501 7.784-3.16592 2.3971-.61891 4.8613-.93666 7.3362-.94596h.4275c.511.01271 1.0094.0356 1.4774.0712 1.233.08657 2.4561.28142 3.6554.58232v2.86332c-1.1647-.27134-2.3489-.44989-3.5416-.53401-.0242-.00204-.0484-.00411-.0726-.00618-.2468-.02105-.4939-.04213-.7243-.04213Zm5.0392 2.92686c.6349.04831 1.2927.0712 1.958.0712 2.6017-.00951 5.1923-.34175 7.7131-.98919 2.5829-.64943 5.0747-1.62162 7.4172-2.89383V33.0272c-2.4344 1.4183-5.0558 2.4841-7.7865 3.1659-2.3975.6166-4.8615.9334-7.3362.9434-1.8751.0152-3.7447-.2052-5.5654-.656V8.40926c.43.09918.8727.19072 1.323.26701.7387.1246 1.5179.21615 2.2768.27209Zm14.1943.21615-1.0119.34075c-.931.31278-1.8695.59254-2.8131.84174-2.7472.7059-5.5707 1.0681-8.4063 1.0782-.6602 0-1.2673-.0178-1.8542-.056l-.807-.0534V34.0927l.6931.061c.6426.0559 1.3054.0839 1.9732.0839 2.2335-.0095 4.4572-.2973 6.6203-.857 1.7811-.4467 3.514-1.0694 5.1733-1.8588l.4326-.2085V9.16451Z" clip-rule="evenodd"/><path d="M35.7371 45.2994c-.1454-.1509-.3208-.2693-.5147-.3478-.194-.0784-.4021-.115-.611-.1074-.2226-.0029-.4436.0386-.6501.1221-.1894.0754-.3615.1888-.506.3331-.1428.1448-.254.3181-.3263.5086-.0793.1997-.1189.4131-.1164.6281v3.794c-.009.2674.042.5333.1493.7782.0895.1944.2188.3677.3794.5085.1517.1277.3297.2198.5212.2696.1844.0518.3751.0784.5666.0788.2113.0021.4204-.043.6122-.1322.1896-.083.3615-.2022.506-.3509.1408-.1474.2532-.3199.3313-.5086.0811-.1913.1224-.3973.1215-.6052v-.4247h-.9917v.3382c.003.1155-.0168.2304-.0582.3382-.0323.0808-.0814.1536-.1442.2136-.0614.0497-.1318.0868-.2074.1094-.067.0223-.1369.0343-.2074.0356-.0886.0103-.1782-.0031-.26-.0388-.0817-.0358-.1526-.0925-.2055-.1647-.0935-.1524-.1393-.3296-.1315-.5085v-3.5372c-.0062-.1962.0355-.3909.1214-.5671.0515-.0801.1243-.144.2102-.1845.0859-.0404.1813-.0558.2755-.0444.0855-.003.1704.0148.2475.052s.1441.0927.1952.1616c.111.1457.169.3252.1644.5086v.3281h.9816v-.3866c.0019-.227-.0393-.4522-.1215-.6637-.0732-.1987-.186-.3804-.3314-.534ZM41.6289 45.2561c-.3162-.267-.7153-.4145-1.1282-.417-.202.0009-.4023.037-.592.1068-.1926.069-.3703.1743-.5236.3102-.1643.1477-.2954.3289-.3846.5315-.0999.2318-.149.4824-.1442.7349v3.6389c-.0068.256.0424.5104.1442.7451.0898.1957.221.3693.3846.5086.1516.1407.3296.2497.5236.3204.1897.0698.39.1059.592.1068.202-.0004.4024-.0365.5919-.1068.1974-.0717.3793-.1804.5363-.3204.1582-.1419.2856-.3151.3744-.5086.1018-.2347.1511-.4891.1442-.7451v-3.6389c.0049-.2525-.0443-.5031-.1442-.7349-.0882-.2005-.2155-.3812-.3744-.5315Zm-.4629 4.9053c.0083.097-.0051.1946-.0392.2857-.0342.0911-.0882.1734-.1581.2407-.131.1099-.2962.17-.4668.17-.1706 0-.3357-.0601-.4667-.17-.07-.0673-.124-.1496-.1581-.2407-.0342-.0911-.0476-.1887-.0392-.2857v-3.6389c-.0084-.097.005-.1946.0392-.2857.0341-.0911.0881-.1733.1581-.2407.131-.1098.2961-.17.4667-.17.1706 0 .3358.0602.4668.17.0699.0674.1239.1496.1581.2407.0341.0911.0475.1887.0392.2857v3.6389ZM49.3673 51.7864v-6.8887h-.9537l-1.2522 3.6465h-.0177l-1.2624-3.6465h-.9436v6.8887h.9841v-4.1907h.0177l.9638 2.9625h.4908l.9714-2.9625h.0177v4.1907h.9841ZM54.9581 45.3807c-.1516-.17-.3428-.2993-.5566-.3764-.2303-.0749-.4713-.111-.7134-.1068H52.226v6.8888h.9815v-2.6904h.5059c.3063.0139.611-.0508.8854-.1882.2232-.1239.4093-.3057.5389-.5264.1135-.1832.19-.3871.2251-.6001.0386-.2592.0564-.5211.0531-.7832.0096-.3308-.0227-.6615-.0961-.9841-.0655-.2384-.1899-.4562-.3617-.6332Zm-.506 2.1005c-.0042.1247-.0353.247-.0911.3585-.0561.1059-.1448.1907-.2529.2416-.1454.065-.304.0946-.463.0864h-.4477v-2.342h.5059c.1524-.0075.3042.0222.4427.0865.1015.0582.1821.1472.2302.2543.0537.121.0829.2515.086.3839v.4578c0 .1602.0101.3255 0 .473h-.0101ZM59.6077 44.8977h-.8045l-1.5178 6.8887h.9815l.2884-1.4799h1.3382l.2884 1.4799h.9816l-1.5558-6.8887Zm-.9057 4.4704.4832-2.4971h.0177l.4807 2.4971h-.9816ZM65.9497 49.0477h-.0177l-1.4824-4.15h-.9436v6.8887h.9815V47.644h.0203l1.5001 4.1424h.9233v-6.8887h-.9815v4.15ZM71.9476 44.8977l-.7893 2.7387h-.0202l-.7893-2.7387h-1.0397l1.3483 3.9771v2.9116h.9816v-2.9116l1.3483-3.9771h-1.0397Z"/></g><defs><clipPath id="a"><path fill="#fff" d="M0 .0869751h106v52.8261H0z"/></clipPath></defs></svg>