<svg xmlns="http://www.w3.org/2000/svg" width="76" height="78" fill="none"><g clip-path="url(#a)" filter="url(#b)"><path fill="#212121" d="M71.4614 33.4715C71.4576 14.9819 56.4656-.00373771 37.9754 7e-7 19.4858.0037391 4.50017 14.9963 4.50391 33.4859c.0032 14.5643 9.42129 27.4554 23.29559 31.8854.1324.0417.2702.063.4086.0625.2638-.0005.5223-.071.7492-.2051.2954-.1746.5159-.4523.6195-.7797l8.4547-26.7969c2.3114-.0117 4.1753-1.8953 4.163-4.2062-.0118-2.3114-1.8948-4.1753-4.2062-4.1635-.6217.0026-1.2353.1458-1.7939.4187L25.0251 18.5302c-.5544-.5351-1.4372-.5196-1.9723.0342-.5223.541-.5223 1.3976 0 1.9386l11.1634 11.1762c-.8566 1.7485-.3669 3.8591 1.1733 5.0511l-8.0557 25.5344C11.4135 56.4002 3.26169 38.7405 9.12618 22.8203 14.9907 6.90002 32.6503-1.25183 48.5706 4.61266 64.4909 10.4771 72.6427 28.1374 66.7782 44.0571c-2.8652 7.778-8.7521 14.0681-16.3234 17.4418l-.8706-4.1c-.1591-.7535-.8998-1.2353-1.6534-1.0756-.2377.0508-.4582.1624-.6398.3242l-8.3932 7.4934c-.5758.5121-.627 1.3938-.1143 1.9696.1666.1869.3802.3257.6195.4021l10.7158 3.4201c.7333.2355 1.5189-.1677 1.7544-.9015.0748-.2318.0871-.4785.0369-.7167l-.8556-4.023c12.3907-5.2237 20.4357-17.3735 20.4069-30.82Zm-33.4785-1.3949c.7701 0 1.395.6248 1.395 1.3949 0 .7707-.6249 1.395-1.395 1.395-.7706 0-1.3949-.6243-1.3949-1.395 0-.7701.6243-1.3949 1.3949-1.3949Zm4.5945 32.515 4.7777-4.2618 1.3186 6.2132-6.0963-1.9514Z"/><path fill="#2196F3" d="M36.5879 6.96729V9.7572c0 .7706.6243 1.395 1.3949 1.395.7702 0 1.395-.6244 1.395-1.395V6.96729c0-.77012-.6248-1.39496-1.395-1.39496-.7706 0-1.3949.62484-1.3949 1.39496ZM11.4787 32.0765c-.7706 0-1.395.6249-1.395 1.395 0 .7706.6244 1.395 1.395 1.395h2.7899c.7707 0 1.395-.6244 1.395-1.395 0-.7701-.6243-1.395-1.395-1.395h-2.7899ZM64.4865 34.8665c.7707 0 1.395-.6244 1.395-1.395 0-.7701-.6243-1.395-1.395-1.395h-2.7899c-.7701 0-1.395.6249-1.395 1.395 0 .7706.6249 1.395 1.395 1.395h2.7899Z"/></g><defs><clipPath id="a"><path fill="#fff" d="M3 0h70v70H3z"/></clipPath><filter id="b" width="78" height="78" x="-1" y="0" color-interpolation-filters="sRGB" filterUnits="userSpaceOnUse"><feFlood flood-opacity="0" result="BackgroundImageFix"/><feColorMatrix in="SourceAlpha" result="hardAlpha" values="0 0 0 0 0 0 0 0 0 0 0 0 0 0 0 0 0 0 127 0"/><feOffset dy="4"/><feGaussianBlur stdDeviation="2"/><feComposite in2="hardAlpha" operator="out"/><feColorMatrix values="0 0 0 0 0 0 0 0 0 0 0 0 0 0 0 0 0 0 0.25 0"/><feBlend in2="BackgroundImageFix" result="effect1_dropShadow_75273_446"/><feBlend in="SourceGraphic" in2="effect1_dropShadow_75273_446" result="shape"/></filter></defs></svg>